<?xml version="1.0" standalone="no"?><!DOCTYPE svg PUBLIC "-//W3C//DTD SVG 1.1//EN" "http://www.w3.org/Graphics/SVG/1.1/DTD/svg11.dtd"><svg class="icon" width="200px" height="200.00px" viewBox="0 0 1024 1024" version="1.1" xmlns="http://www.w3.org/2000/svg"><path fill="#000000" d="M739.333 788.674H284.667C182.841 788.674 100 705.833 100 604.007c0-101.826 82.841-184.667 184.667-184.667 6.732 0 13.452 0.376 20.139 1.126 9.245-109.143 101.033-195.14 212.527-195.14 111.199 0 202.797 85.539 212.451 194.271a178.25 178.25 0 0 1 9.549-0.257C841.159 419.34 924 502.181 924 604.007c0 101.826-82.841 184.667-184.667 184.667zM284.667 483.34C218.131 483.34 164 537.471 164 604.007s54.131 120.667 120.667 120.667h454.666c66.536 0 120.667-54.131 120.667-120.667S805.869 483.34 739.333 483.34c-10.869 0-21.95 1.578-32.938 4.689a32.003 32.003 0 0 1-40.555-34.039c0.521-5.094 0.784-10.266 0.784-15.372 0-82.32-66.972-149.292-149.292-149.292-82.32 0-149.292 66.972-149.292 149.292 0 5.497 0.405 11.35 1.275 18.419a32 32 0 0 1-42.862 33.919c-13.664-5.054-27.723-7.616-41.786-7.616z"  /></svg>